<?xml version="1.0" encoding="utf-8"?>
<!-- Generator: Adobe Illustrator 21.1.0, SVG Export Plug-In . SVG Version: 6.00 Build 0)  -->
<svg version="1.1" id="Warstwa_1" xmlns:x="&ns_extend;" xmlns:i="&ns_ai;" xmlns:graph="&ns_graphs;"
	 xmlns="http://www.w3.org/2000/svg" xmlns:xlink="http://www.w3.org/1999/xlink" x="0px" y="0px" viewBox="0 0 1600 800"
	 style="enable-background:new 0 0 1600 800;" xml:space="preserve">
<metadata>
	<sfw  xmlns="&ns_sfw;">
		<slices></slices>
		<sliceSourceBounds  bottomLeftOrigin="true" height="728" width="1144.5" x="227.8" y="37"></sliceSourceBounds>
	</sfw>
</metadata>
<g>
	<g>
		<path d="M935.3,346.5H591.8V472h206.5c-2.4,10.7-5.9,22.8-10.7,36.5c-4.7,13.6-12.8,27.6-24,41.8c-11.3,14.2-24.3,27-39.2,38.3
			s-33.8,20.8-57,28.5c-23.1,7.7-48.4,11.6-75.6,11.6c-40.9,0-78.6-10.1-113-30.3c-34.4-20.2-61.7-48.1-81.9-83.7
			c-20.2-35.6-30.3-74.2-30.3-115.7s10.1-80.1,30.3-115.7c20.2-35.6,47.5-63.5,81.9-83.7s72.1-30.3,113-30.3
			c58.1,0,106.5,18.7,145.1,56.1l98.8-95.2C768,66.7,686.7,35,591.8,35c-49.2,0-96.4,9.5-141.5,28.5s-84,44.8-116.6,77.4
			s-58.4,71.5-77.4,116.6c-19,45.1-28.5,92.3-28.5,141.5s9.5,96.4,28.5,141.5c19,45.1,44.8,84,77.4,116.6
			c32.6,32.6,71.5,58.4,116.6,77.4S542.5,763,591.8,763c69.4,0.6,130.5-14.5,183.3-45.4c52.8-30.9,93.7-73,122.8-126.4
			c29.1-53.4,43.6-114.8,43.6-184.2C941.5,388,939.4,367.8,935.3,346.5z M1268.1,346.5V243.2H1164v103.2h-104.1v105H1164v103.2
			h104.1V451.5h104.1v-105H1268.1z"/>
	</g>
</g>
</svg>
