<?xml version="1.0" encoding="utf-8"?>
<!-- Generator: Adobe Illustrator 21.1.0, SVG Export Plug-In . SVG Version: 6.00 Build 0)  -->
<svg version="1.1" id="Warstwa_1" xmlns:x="&ns_extend;" xmlns:i="&ns_ai;" xmlns:graph="&ns_graphs;"
	 xmlns="http://www.w3.org/2000/svg" xmlns:xlink="http://www.w3.org/1999/xlink" x="0px" y="0px" viewBox="0 0 1600 800"
	 enable-background="new 0 0 1600 800" xml:space="preserve">
<metadata>
	<sfw  xmlns="&ns_sfw;">
		<slices></slices>
		<sliceSourceBounds  bottomLeftOrigin="true" height="763.8" width="940.1" x="329.9" y="18.1"></sliceSourceBounds>
	</sfw>
</metadata>
<g>
	<g>
		<path d="M329.9,109c26.4,38.5,58.5,71.7,96.3,99.5c0,5.7,0,13.9,0,24.6c0,52.1,7.5,103.7,22.5,155.1s37.8,100.9,68.5,148.7
			s67.4,89.5,110.2,125.1c42.8,35.7,94.1,64.9,154,87.7c59.9,22.8,124.4,33.5,193.6,32.1c107.7,0,206.1-28.9,295.2-86.6
			c-13.5,1.4-28.9,2.1-46,2.1c-89.8,0-169.7-27.5-239.6-82.4c42.1-0.7,79.5-13.5,112.3-38.5c32.8-25,55.6-56.7,68.5-95.2
			c-13.5,2.1-25.7,3.2-36.4,3.2c-17.1,0-34.2-2.1-51.3-6.4c44.9-9.3,82-31.4,111.2-66.3s43.9-75.9,43.9-123v-2.1
			c-27.1,15-56.3,23.2-87.7,24.6c26.4-17.8,47.4-40.6,63.1-68.5s23.5-58.5,23.5-92c0-34.9-8.9-67.4-26.7-97.3
			c-48.5,59.2-107,106.6-175.4,142.2S886.8,250.9,807,254.5c3.6-15,5.3-29.6,5.3-43.9c0-53.5-18.9-98.8-56.7-135.8
			s-83.1-56-135.8-56.7c-56.3,0-103.4,20.3-141.2,61c-43.5-8.6-84.5-24.2-123-47.1c15,45.6,43.5,81.3,85.6,107
			C404.1,134.7,367,124.7,329.9,109z"/>
	</g>
</g>
</svg>
