<?xml version="1.0" encoding="utf-8"?>
<!-- Generator: Adobe Illustrator 21.1.0, SVG Export Plug-In . SVG Version: 6.00 Build 0)  -->
<svg version="1.1" id="Warstwa_1" xmlns:x="&ns_extend;" xmlns:i="&ns_ai;" xmlns:graph="&ns_graphs;"
	 xmlns="http://www.w3.org/2000/svg" xmlns:xlink="http://www.w3.org/1999/xlink" x="0px" y="0px" viewBox="0 0 1600 800"
	 style="enable-background:new 0 0 1600 800;" xml:space="preserve">
<metadata>
	<sfw  xmlns="&ns_sfw;">
		<slices></slices>
		<sliceSourceBounds  bottomLeftOrigin="true" height="704" width="1000.2" x="299.9" y="48"></sliceSourceBounds>
	</sfw>
</metadata>
<g>
	<g>
		<path d="M697,271l270,139L697,551V271z M800,752c62.7,0,123-1,181-3s100.7-3.7,128-5l41-2c0,0,3-0.3,9-1s10.3-1.3,13-2
			c2.7-0.7,7-1.3,13-2s11.3-2.3,16-5c4.7-2.7,10-5,16-7s11.7-5.7,17-11c5.3-5.3,10.7-10.3,16-15c2.7-2,5.7-5.3,9-10
			c3.3-4.7,8.7-15.7,16-33c7.3-17.3,12.3-36,15-56c2.7-24,5-49.3,7-76c2-26.7,3-48,3-64v-98c0.7-54-2.7-108-10-162
			c-2.7-20-7.3-38.3-14-55c-6.7-16.7-12.7-28.3-18-35l-8-9c-4.7-5.3-10-10.3-16-15c-6-4.7-11.7-8-17-10c-5.3-2-10.7-4.3-16-7
			c-5.3-2.7-10.7-4.3-16-5c-5.3-0.7-9.7-1.3-13-2c-3.3-0.7-7.7-1.3-13-2c-5.3-0.7-8.3-1-9-1c-93.3-7.3-210-11-350-11
			c-76.7,1.3-143.7,2.7-201,4s-94.3,2.7-111,4l-28,3l-20,2c-13.3,2-23.3,3.7-30,5s-16.3,5.3-29,12c-12.7,6.7-23,14.3-31,23
			c-2.7,2-5.7,5.3-9,10c-3.3,4.7-8.7,15.7-16,33s-12.3,36-15,56c-2.7,24-5,49.3-7,76s-3,48-3,64v98c-0.7,54,2.7,108,10,162
			c2.7,20.7,7.3,39,14,55s12.7,27.7,18,35l8,9c5.3,6,10.7,11,16,15s11,7.7,17,11s11.3,5.7,16,7s10,3,16,5s10.3,2.7,13,2s7,0,13,2
			s9,2.3,9,1C543.3,748.7,660,752,800,752z"/>
	</g>
</g>
</svg>
